<svg xmlns="http://www.w3.org/2000/svg" width="300" height="80" viewBox="0 0 300 80"><path fill="#b81d24" d="M256.1-224.1c4.2.4 8.4.8 12.5 1.3l9.2-22.3 8.7 24.4c4.5.6 9 1.1 13.4 1.7l-15.3-42.8L300-299h-13l-.1.2-8.3 20.1-7.3-20.3h-12.8l13.2 36.9-15.6 38zm-124.3-5c3.5 0 6.9 0 10.4.1v-27.2h15.4v-11.6h-15.4v-19.6h17.7V-299h-30.6v69.9h2.5m-39.7.7c4.3-.1 8.5-.3 12.8-.4v-58.6h12V-299H80.1v11.6h12v59zm-79.8 7.8v-44.1l15.2 42.3c4.7-.5 9.3-1 14-1.5V-299H29.2v45.7L12.8-299H0v80h.1c4-.6 8.1-1.1 12.2-1.6m233.6-66.8V-299h-30.6v72.4c10.8.5 20.4 1.4 30.6 2v-11.6c-5.8-.6-11.6-1-17.7-1.6v-18.5h15.4v-11.6h-15.4v-19.6h17.7zm-60.6 48V-299h-12.9v70.6c10.2.4 20.4.9 30.6 1.5v-11.6c-5.8-.3-11.7-.6-17.7-.9M68.2-226.1V-299H55.4v73.9c3.9-.3 8.8-.7 12.8-1m187.9 301c4.2.4 8.4.8 12.5 1.3l9.2-22.3 8.7 24.4c4.5.6 9 1.1 13.4 1.7l-15.3-42.8L300 0h-13l-.1.2-8.3 20.1L271.3 0h-12.8l13.2 36.9-15.6 38zm-124.3-5c3.5 0 6.9 0 10.4.1V42.8h15.4V31.2h-15.4V11.6h17.7V0h-30.6v69.9h2.5m-39.7.7c4.3-.1 8.5-.3 12.8-.4V11.6h12V0H80.1v11.6h12v59zm-79.8 7.8V34.3l15.2 42.3c4.7-.5 9.3-1 14-1.5V0H29.2v45.7L12.8 0H0v80h.1c4-.6 8.1-1.1 12.2-1.6m233.6-66.8V0h-30.6v72.4c10.8.5 20.4 1.4 30.6 2V62.9c-5.8-.6-11.6-1-17.7-1.6V42.8h15.4V31.2h-15.4V11.6h17.7zm-60.6 48V0h-12.9v70.6c10.2.4 20.4.9 30.6 1.5V60.6c-5.8-.4-11.7-.7-17.7-1M68.2 72.9V0H55.4v73.9c3.9-.3 8.8-.7 12.8-1"/></svg>